<mxfile host="app.diagrams.net" modified="2022-01-31T12:51:39.760Z" agent="5.0 (Windows NT 6.1; Win64; x64) AppleWebKit/537.36 (KHTML, like Gecko) Chrome/97.0.4692.99 Safari/537.36" etag="Nr2-bylnWc9uoKTwnQ-5" version="16.5.2" type="github">
  <diagram id="NoDILGUKRQpbgBhr8J0K" name="第 1 页">
    <mxGraphModel dx="1422" dy="762" grid="1" gridSize="10" guides="1" tooltips="1" connect="1" arrows="1" fold="1" page="1" pageScale="1" pageWidth="827" pageHeight="1169" background="#ffffff" math="0" shadow="0">
      <root>
        <mxCell id="0" />
        <mxCell id="1" parent="0" />
        <mxCell id="1GqySz-qCQZ0IoMKtCMp-2" value="" style="rounded=0;whiteSpace=wrap;html=1;shadow=0;fontFamily=Comic Sans MS;fontSize=14;opacity=50;fillColor=#dae8fc;strokeColor=#6c8ebf;dashed=1;" parent="1" vertex="1">
          <mxGeometry x="124.85" y="290" width="738.43" height="110" as="geometry" />
        </mxCell>
        <mxCell id="1GqySz-qCQZ0IoMKtCMp-3" value="&lt;font style=&quot;font-size: 14px&quot; face=&quot;Comic Sans MS&quot;&gt;1&lt;/font&gt;" style="rounded=0;whiteSpace=wrap;html=1;fillColor=#f5f5f5;fontColor=#333333;strokeColor=#666666;shadow=1;" parent="1" vertex="1">
          <mxGeometry x="360" y="70" width="40" height="40" as="geometry" />
        </mxCell>
        <mxCell id="1GqySz-qCQZ0IoMKtCMp-4" value="&lt;font style=&quot;font-size: 14px&quot; face=&quot;Comic Sans MS&quot;&gt;2&lt;/font&gt;" style="rounded=0;whiteSpace=wrap;html=1;fillColor=#f5f5f5;fontColor=#333333;strokeColor=#666666;shadow=1;" parent="1" vertex="1">
          <mxGeometry x="400" y="70" width="40" height="40" as="geometry" />
        </mxCell>
        <mxCell id="1GqySz-qCQZ0IoMKtCMp-8" value="" style="endArrow=classic;html=1;rounded=0;fontFamily=Comic Sans MS;fontSize=14;exitX=0.5;exitY=1;exitDx=0;exitDy=0;entryX=0.5;entryY=0;entryDx=0;entryDy=0;" parent="1" source="1GqySz-qCQZ0IoMKtCMp-3" target="1GqySz-qCQZ0IoMKtCMp-11" edge="1">
          <mxGeometry width="50" height="50" relative="1" as="geometry">
            <mxPoint x="522.5" y="160" as="sourcePoint" />
            <mxPoint x="462.5" y="200" as="targetPoint" />
          </mxGeometry>
        </mxCell>
        <mxCell id="1GqySz-qCQZ0IoMKtCMp-9" value="&lt;font style=&quot;font-size: 14px&quot; face=&quot;Comic Sans MS&quot;&gt;2&lt;/font&gt;" style="rounded=0;whiteSpace=wrap;html=1;fillColor=#f5f5f5;fontColor=#333333;strokeColor=#666666;shadow=1;" parent="1" vertex="1">
          <mxGeometry x="310" y="160" width="40" height="40" as="geometry" />
        </mxCell>
        <mxCell id="1GqySz-qCQZ0IoMKtCMp-11" value="&lt;font style=&quot;font-size: 14px&quot; face=&quot;Comic Sans MS&quot;&gt;...&lt;/font&gt;" style="rounded=0;whiteSpace=wrap;html=1;fillColor=#f5f5f5;fontColor=#333333;strokeColor=#666666;shadow=1;" parent="1" vertex="1">
          <mxGeometry x="350" y="160" width="40" height="40" as="geometry" />
        </mxCell>
        <mxCell id="1GqySz-qCQZ0IoMKtCMp-13" value="&lt;font style=&quot;font-size: 14px&quot; face=&quot;Comic Sans MS&quot;&gt;9&lt;/font&gt;" style="rounded=0;whiteSpace=wrap;html=1;fillColor=#f5f5f5;fontColor=#333333;strokeColor=#666666;shadow=1;" parent="1" vertex="1">
          <mxGeometry x="390" y="160" width="40" height="40" as="geometry" />
        </mxCell>
        <mxCell id="1GqySz-qCQZ0IoMKtCMp-22" value="" style="endArrow=classic;html=1;rounded=0;fontFamily=Comic Sans MS;fontSize=14;exitX=0.5;exitY=1;exitDx=0;exitDy=0;entryX=0.5;entryY=0;entryDx=0;entryDy=0;" parent="1" source="1GqySz-qCQZ0IoMKtCMp-11" target="1GqySz-qCQZ0IoMKtCMp-123" edge="1">
          <mxGeometry width="50" height="50" relative="1" as="geometry">
            <mxPoint x="330" y="200" as="sourcePoint" />
            <mxPoint x="310" y="240" as="targetPoint" />
          </mxGeometry>
        </mxCell>
        <mxCell id="1GqySz-qCQZ0IoMKtCMp-23" value="&lt;font style=&quot;font-size: 14px&quot; face=&quot;Comic Sans MS&quot;&gt;1&lt;/font&gt;" style="rounded=0;whiteSpace=wrap;html=1;fillColor=#f8cecc;strokeColor=#b85450;shadow=1;" parent="1" vertex="1">
          <mxGeometry x="394.06" y="340" width="40" height="40" as="geometry" />
        </mxCell>
        <mxCell id="1GqySz-qCQZ0IoMKtCMp-24" value="&lt;font style=&quot;font-size: 14px&quot; face=&quot;Comic Sans MS&quot;&gt;2&lt;/font&gt;" style="rounded=0;whiteSpace=wrap;html=1;fillColor=#f8cecc;strokeColor=#b85450;shadow=1;" parent="1" vertex="1">
          <mxGeometry x="434.06000000000006" y="340" width="40" height="40" as="geometry" />
        </mxCell>
        <mxCell id="1GqySz-qCQZ0IoMKtCMp-35" value="选1" style="text;html=1;strokeColor=none;fillColor=none;align=center;verticalAlign=middle;whiteSpace=wrap;rounded=0;shadow=1;fontFamily=Comic Sans MS;fontSize=14;" parent="1" vertex="1">
          <mxGeometry x="332.5" y="130" width="40" height="20" as="geometry" />
        </mxCell>
        <mxCell id="1GqySz-qCQZ0IoMKtCMp-38" value="选2" style="text;html=1;strokeColor=none;fillColor=none;align=center;verticalAlign=middle;whiteSpace=wrap;rounded=0;shadow=1;fontFamily=Comic Sans MS;fontSize=14;" parent="1" vertex="1">
          <mxGeometry x="300" y="210" width="40" height="20" as="geometry" />
        </mxCell>
        <mxCell id="1GqySz-qCQZ0IoMKtCMp-44" value="红色和绿色节点为叶子节点，表示一个组合&lt;br&gt;红色节点：表示符合n=12, k=3的结果集合&lt;br&gt;绿色节点：也是组合，但不符n=12,k=3的要求" style="text;html=1;strokeColor=none;fillColor=none;align=center;verticalAlign=middle;whiteSpace=wrap;rounded=0;shadow=1;fontFamily=Comic Sans MS;fontSize=14;opacity=50;" parent="1" vertex="1">
          <mxGeometry x="122.44" y="410" width="797.56" height="50" as="geometry" />
        </mxCell>
        <mxCell id="1GqySz-qCQZ0IoMKtCMp-45" value="n=12, k=3" style="text;html=1;strokeColor=none;fillColor=none;align=center;verticalAlign=middle;whiteSpace=wrap;rounded=0;shadow=0;dashed=1;fontFamily=Comic Sans MS;fontSize=14;opacity=50;" parent="1" vertex="1">
          <mxGeometry x="360" y="50" width="320" height="20" as="geometry" />
        </mxCell>
        <mxCell id="1GqySz-qCQZ0IoMKtCMp-115" style="rounded=0;orthogonalLoop=1;jettySize=auto;html=1;exitX=0.5;exitY=1;exitDx=0;exitDy=0;entryX=0.5;entryY=0;entryDx=0;entryDy=0;" parent="1" source="1GqySz-qCQZ0IoMKtCMp-108" target="1GqySz-qCQZ0IoMKtCMp-113" edge="1">
          <mxGeometry relative="1" as="geometry" />
        </mxCell>
        <mxCell id="1GqySz-qCQZ0IoMKtCMp-108" value="&lt;font style=&quot;font-size: 14px&quot; face=&quot;Comic Sans MS&quot;&gt;3&lt;/font&gt;" style="rounded=0;whiteSpace=wrap;html=1;fillColor=#f5f5f5;fontColor=#333333;strokeColor=#666666;shadow=1;" parent="1" vertex="1">
          <mxGeometry x="440" y="70" width="40" height="40" as="geometry" />
        </mxCell>
        <mxCell id="1GqySz-qCQZ0IoMKtCMp-112" value="&lt;font style=&quot;font-size: 14px&quot; face=&quot;Comic Sans MS&quot;&gt;4&lt;/font&gt;" style="rounded=0;whiteSpace=wrap;html=1;fillColor=#f5f5f5;fontColor=#333333;strokeColor=#666666;shadow=1;" parent="1" vertex="1">
          <mxGeometry x="510" y="160" width="40" height="40" as="geometry" />
        </mxCell>
        <mxCell id="1GqySz-qCQZ0IoMKtCMp-159" style="edgeStyle=none;rounded=0;orthogonalLoop=1;jettySize=auto;html=1;exitX=0.5;exitY=1;exitDx=0;exitDy=0;entryX=0.5;entryY=0;entryDx=0;entryDy=0;" parent="1" source="1GqySz-qCQZ0IoMKtCMp-113" target="1GqySz-qCQZ0IoMKtCMp-157" edge="1">
          <mxGeometry relative="1" as="geometry" />
        </mxCell>
        <mxCell id="1GqySz-qCQZ0IoMKtCMp-188" style="edgeStyle=none;rounded=0;orthogonalLoop=1;jettySize=auto;html=1;exitX=0.5;exitY=1;exitDx=0;exitDy=0;entryX=0.5;entryY=0;entryDx=0;entryDy=0;" parent="1" source="1GqySz-qCQZ0IoMKtCMp-113" edge="1">
          <mxGeometry relative="1" as="geometry">
            <mxPoint x="620" y="240" as="targetPoint" />
          </mxGeometry>
        </mxCell>
        <mxCell id="1GqySz-qCQZ0IoMKtCMp-113" value="&lt;font style=&quot;font-size: 14px&quot; face=&quot;Comic Sans MS&quot;&gt;...&lt;/font&gt;" style="rounded=0;whiteSpace=wrap;html=1;fillColor=#f5f5f5;fontColor=#333333;strokeColor=#666666;shadow=1;" parent="1" vertex="1">
          <mxGeometry x="550" y="160" width="40" height="40" as="geometry" />
        </mxCell>
        <mxCell id="1GqySz-qCQZ0IoMKtCMp-114" value="&lt;font style=&quot;font-size: 14px&quot; face=&quot;Comic Sans MS&quot;&gt;9&lt;/font&gt;" style="rounded=0;whiteSpace=wrap;html=1;fillColor=#f5f5f5;fontColor=#333333;strokeColor=#666666;shadow=1;" parent="1" vertex="1">
          <mxGeometry x="590" y="160" width="40" height="40" as="geometry" />
        </mxCell>
        <mxCell id="1GqySz-qCQZ0IoMKtCMp-116" value="选3" style="text;html=1;strokeColor=none;fillColor=none;align=center;verticalAlign=middle;whiteSpace=wrap;rounded=0;shadow=1;fontFamily=Comic Sans MS;fontSize=14;" parent="1" vertex="1">
          <mxGeometry x="470" y="130" width="40" height="20" as="geometry" />
        </mxCell>
        <mxCell id="1GqySz-qCQZ0IoMKtCMp-149" style="edgeStyle=none;rounded=0;orthogonalLoop=1;jettySize=auto;html=1;exitX=0.5;exitY=1;exitDx=0;exitDy=0;entryX=0.5;entryY=0;entryDx=0;entryDy=0;" parent="1" source="1GqySz-qCQZ0IoMKtCMp-123" target="1GqySz-qCQZ0IoMKtCMp-143" edge="1">
          <mxGeometry relative="1" as="geometry">
            <mxPoint x="291.87" y="300" as="sourcePoint" />
          </mxGeometry>
        </mxCell>
        <mxCell id="1GqySz-qCQZ0IoMKtCMp-122" value="&lt;font style=&quot;font-size: 14px&quot; face=&quot;Comic Sans MS&quot;&gt;3&lt;/font&gt;" style="rounded=0;whiteSpace=wrap;html=1;fillColor=#f5f5f5;fontColor=#333333;strokeColor=#666666;shadow=1;" parent="1" vertex="1">
          <mxGeometry x="272.5" y="240" width="40" height="40" as="geometry" />
        </mxCell>
        <mxCell id="1GqySz-qCQZ0IoMKtCMp-125" style="edgeStyle=none;rounded=0;orthogonalLoop=1;jettySize=auto;html=1;exitX=0.5;exitY=1;exitDx=0;exitDy=0;entryX=0.5;entryY=0;entryDx=0;entryDy=0;" parent="1" source="1GqySz-qCQZ0IoMKtCMp-123" target="1GqySz-qCQZ0IoMKtCMp-24" edge="1">
          <mxGeometry relative="1" as="geometry">
            <mxPoint x="331.87" y="300" as="sourcePoint" />
          </mxGeometry>
        </mxCell>
        <mxCell id="1GqySz-qCQZ0IoMKtCMp-123" value="&lt;font style=&quot;font-size: 14px&quot; face=&quot;Comic Sans MS&quot;&gt;...&lt;/font&gt;" style="rounded=0;whiteSpace=wrap;html=1;fillColor=#f5f5f5;fontColor=#333333;strokeColor=#666666;shadow=1;" parent="1" vertex="1">
          <mxGeometry x="312.5" y="240" width="40" height="40" as="geometry" />
        </mxCell>
        <mxCell id="1GqySz-qCQZ0IoMKtCMp-124" value="&lt;font style=&quot;font-size: 14px&quot; face=&quot;Comic Sans MS&quot;&gt;9&lt;/font&gt;" style="rounded=0;whiteSpace=wrap;html=1;fillColor=#f5f5f5;fontColor=#333333;strokeColor=#666666;shadow=1;" parent="1" vertex="1">
          <mxGeometry x="352.5" y="240" width="40" height="40" as="geometry" />
        </mxCell>
        <mxCell id="1GqySz-qCQZ0IoMKtCMp-126" value="&lt;font style=&quot;font-size: 14px&quot; face=&quot;Comic Sans MS&quot;&gt;9&lt;/font&gt;" style="rounded=0;whiteSpace=wrap;html=1;fillColor=#f8cecc;strokeColor=#b85450;shadow=1;" parent="1" vertex="1">
          <mxGeometry x="474.06000000000006" y="340" width="40" height="40" as="geometry" />
        </mxCell>
        <mxCell id="1GqySz-qCQZ0IoMKtCMp-127" value="选9" style="text;html=1;strokeColor=none;fillColor=none;align=center;verticalAlign=middle;whiteSpace=wrap;rounded=0;shadow=1;fontFamily=Comic Sans MS;fontSize=14;" parent="1" vertex="1">
          <mxGeometry x="342.81" y="300" width="40" height="20" as="geometry" />
        </mxCell>
        <mxCell id="1GqySz-qCQZ0IoMKtCMp-142" value="&lt;font style=&quot;font-size: 14px&quot; face=&quot;Comic Sans MS&quot;&gt;1&lt;/font&gt;" style="rounded=0;whiteSpace=wrap;html=1;fillColor=#d5e8d4;strokeColor=#82b366;shadow=1;" parent="1" vertex="1">
          <mxGeometry x="200" y="340" width="40" height="40" as="geometry" />
        </mxCell>
        <mxCell id="1GqySz-qCQZ0IoMKtCMp-143" value="&lt;font style=&quot;font-size: 14px&quot; face=&quot;Comic Sans MS&quot;&gt;2&lt;/font&gt;" style="rounded=0;whiteSpace=wrap;html=1;fillColor=#d5e8d4;strokeColor=#82b366;shadow=1;" parent="1" vertex="1">
          <mxGeometry x="240" y="340" width="40" height="40" as="geometry" />
        </mxCell>
        <mxCell id="1GqySz-qCQZ0IoMKtCMp-144" value="&lt;font style=&quot;font-size: 14px&quot; face=&quot;Comic Sans MS&quot;&gt;3&lt;/font&gt;" style="rounded=0;whiteSpace=wrap;html=1;fillColor=#d5e8d4;strokeColor=#82b366;shadow=1;" parent="1" vertex="1">
          <mxGeometry x="280" y="340" width="40" height="40" as="geometry" />
        </mxCell>
        <mxCell id="1GqySz-qCQZ0IoMKtCMp-150" value="选3" style="text;html=1;strokeColor=none;fillColor=none;align=center;verticalAlign=middle;whiteSpace=wrap;rounded=0;shadow=1;fontFamily=Comic Sans MS;fontSize=14;" parent="1" vertex="1">
          <mxGeometry x="250" y="300" width="40" height="20" as="geometry" />
        </mxCell>
        <mxCell id="1GqySz-qCQZ0IoMKtCMp-152" value="... ..." style="text;html=1;strokeColor=none;fillColor=none;align=center;verticalAlign=middle;whiteSpace=wrap;rounded=0;" parent="1" vertex="1">
          <mxGeometry x="334.06" y="340" width="57.5" height="40" as="geometry" />
        </mxCell>
        <mxCell id="1GqySz-qCQZ0IoMKtCMp-154" value="&lt;font style=&quot;font-size: 14px&quot; face=&quot;Comic Sans MS&quot;&gt;... ...&lt;/font&gt;" style="rounded=0;whiteSpace=wrap;html=1;fillColor=#f5f5f5;fontColor=#333333;strokeColor=#666666;shadow=1;" parent="1" vertex="1">
          <mxGeometry x="480" y="70" width="120" height="40" as="geometry" />
        </mxCell>
        <mxCell id="1GqySz-qCQZ0IoMKtCMp-176" style="edgeStyle=none;rounded=0;orthogonalLoop=1;jettySize=auto;html=1;exitX=0.5;exitY=1;exitDx=0;exitDy=0;entryX=0.5;entryY=0;entryDx=0;entryDy=0;" parent="1" source="1GqySz-qCQZ0IoMKtCMp-109" target="1GqySz-qCQZ0IoMKtCMp-175" edge="1">
          <mxGeometry relative="1" as="geometry" />
        </mxCell>
        <mxCell id="1GqySz-qCQZ0IoMKtCMp-109" value="&lt;font style=&quot;font-size: 14px&quot; face=&quot;Comic Sans MS&quot;&gt;8&lt;/font&gt;" style="rounded=0;whiteSpace=wrap;html=1;fillColor=#f5f5f5;fontColor=#333333;strokeColor=#666666;shadow=1;" parent="1" vertex="1">
          <mxGeometry x="600" y="70" width="40" height="40" as="geometry" />
        </mxCell>
        <mxCell id="1GqySz-qCQZ0IoMKtCMp-173" style="edgeStyle=none;rounded=0;orthogonalLoop=1;jettySize=auto;html=1;exitX=0.5;exitY=1;exitDx=0;exitDy=0;entryX=0.5;entryY=0;entryDx=0;entryDy=0;" parent="1" source="1GqySz-qCQZ0IoMKtCMp-110" target="1GqySz-qCQZ0IoMKtCMp-172" edge="1">
          <mxGeometry relative="1" as="geometry">
            <mxPoint x="800" y="110" as="sourcePoint" />
          </mxGeometry>
        </mxCell>
        <mxCell id="1GqySz-qCQZ0IoMKtCMp-110" value="&lt;font style=&quot;font-size: 14px&quot; face=&quot;Comic Sans MS&quot;&gt;9&lt;/font&gt;" style="rounded=0;whiteSpace=wrap;html=1;fillColor=#f5f5f5;fontColor=#333333;strokeColor=#666666;shadow=1;" parent="1" vertex="1">
          <mxGeometry x="640" y="70" width="40" height="40" as="geometry" />
        </mxCell>
        <mxCell id="1GqySz-qCQZ0IoMKtCMp-156" value="&lt;font style=&quot;font-size: 14px&quot; face=&quot;Comic Sans MS&quot;&gt;5&lt;/font&gt;" style="rounded=0;whiteSpace=wrap;html=1;fillColor=#f5f5f5;fontColor=#333333;strokeColor=#666666;shadow=1;" parent="1" vertex="1">
          <mxGeometry x="440" y="240" width="40" height="40" as="geometry" />
        </mxCell>
        <mxCell id="1GqySz-qCQZ0IoMKtCMp-164" style="edgeStyle=none;rounded=0;orthogonalLoop=1;jettySize=auto;html=1;exitX=0.5;exitY=1;exitDx=0;exitDy=0;entryX=0.5;entryY=0;entryDx=0;entryDy=0;" parent="1" source="1GqySz-qCQZ0IoMKtCMp-157" target="1GqySz-qCQZ0IoMKtCMp-162" edge="1">
          <mxGeometry relative="1" as="geometry">
            <mxPoint x="609.37" y="300" as="sourcePoint" />
          </mxGeometry>
        </mxCell>
        <mxCell id="1GqySz-qCQZ0IoMKtCMp-170" style="edgeStyle=none;rounded=0;orthogonalLoop=1;jettySize=auto;html=1;exitX=0.5;exitY=1;exitDx=0;exitDy=0;entryX=0.5;entryY=0;entryDx=0;entryDy=0;" parent="1" source="1GqySz-qCQZ0IoMKtCMp-157" target="1GqySz-qCQZ0IoMKtCMp-167" edge="1">
          <mxGeometry relative="1" as="geometry">
            <mxPoint x="609.37" y="300" as="sourcePoint" />
          </mxGeometry>
        </mxCell>
        <mxCell id="1GqySz-qCQZ0IoMKtCMp-157" value="&lt;font style=&quot;font-size: 14px&quot; face=&quot;Comic Sans MS&quot;&gt;...&lt;/font&gt;" style="rounded=0;whiteSpace=wrap;html=1;fillColor=#f5f5f5;fontColor=#333333;strokeColor=#666666;shadow=1;" parent="1" vertex="1">
          <mxGeometry x="480" y="240" width="40" height="40" as="geometry" />
        </mxCell>
        <mxCell id="1GqySz-qCQZ0IoMKtCMp-158" value="&lt;font style=&quot;font-size: 14px&quot; face=&quot;Comic Sans MS&quot;&gt;9&lt;/font&gt;" style="rounded=0;whiteSpace=wrap;html=1;fillColor=#f5f5f5;fontColor=#333333;strokeColor=#666666;shadow=1;" parent="1" vertex="1">
          <mxGeometry x="520" y="240" width="40" height="40" as="geometry" />
        </mxCell>
        <mxCell id="1GqySz-qCQZ0IoMKtCMp-160" value="选4" style="text;html=1;strokeColor=none;fillColor=none;align=center;verticalAlign=middle;whiteSpace=wrap;rounded=0;shadow=1;fontFamily=Comic Sans MS;fontSize=14;" parent="1" vertex="1">
          <mxGeometry x="480" y="210" width="40" height="20" as="geometry" />
        </mxCell>
        <mxCell id="1GqySz-qCQZ0IoMKtCMp-161" value="&lt;font style=&quot;font-size: 14px&quot; face=&quot;Comic Sans MS&quot;&gt;3&lt;/font&gt;" style="rounded=0;whiteSpace=wrap;html=1;fillColor=#f8cecc;strokeColor=#b85450;shadow=1;" parent="1" vertex="1">
          <mxGeometry x="541.5600000000001" y="340" width="40" height="40" as="geometry" />
        </mxCell>
        <mxCell id="1GqySz-qCQZ0IoMKtCMp-162" value="&lt;font style=&quot;font-size: 14px&quot; face=&quot;Comic Sans MS&quot;&gt;4&lt;/font&gt;" style="rounded=0;whiteSpace=wrap;html=1;fillColor=#f8cecc;strokeColor=#b85450;shadow=1;" parent="1" vertex="1">
          <mxGeometry x="581.56" y="340" width="40" height="40" as="geometry" />
        </mxCell>
        <mxCell id="1GqySz-qCQZ0IoMKtCMp-163" value="&lt;font style=&quot;font-size: 14px&quot; face=&quot;Comic Sans MS&quot;&gt;5&lt;/font&gt;" style="rounded=0;whiteSpace=wrap;html=1;fillColor=#f8cecc;strokeColor=#b85450;shadow=1;" parent="1" vertex="1">
          <mxGeometry x="621.56" y="340" width="40" height="40" as="geometry" />
        </mxCell>
        <mxCell id="1GqySz-qCQZ0IoMKtCMp-165" value="选5" style="text;html=1;strokeColor=none;fillColor=none;align=center;verticalAlign=middle;whiteSpace=wrap;rounded=0;shadow=1;fontFamily=Comic Sans MS;fontSize=14;" parent="1" vertex="1">
          <mxGeometry x="501.55999999999995" y="300" width="40" height="20" as="geometry" />
        </mxCell>
        <mxCell id="1GqySz-qCQZ0IoMKtCMp-166" value="&lt;font style=&quot;font-size: 14px&quot; face=&quot;Comic Sans MS&quot;&gt;3&lt;/font&gt;" style="rounded=0;whiteSpace=wrap;html=1;fillColor=#d5e8d4;strokeColor=#82b366;shadow=1;" parent="1" vertex="1">
          <mxGeometry x="689.06" y="340" width="40" height="40" as="geometry" />
        </mxCell>
        <mxCell id="1GqySz-qCQZ0IoMKtCMp-167" value="&lt;font style=&quot;font-size: 14px&quot; face=&quot;Comic Sans MS&quot;&gt;4&lt;/font&gt;" style="rounded=0;whiteSpace=wrap;html=1;fillColor=#d5e8d4;strokeColor=#82b366;shadow=1;" parent="1" vertex="1">
          <mxGeometry x="729.06" y="340" width="40" height="40" as="geometry" />
        </mxCell>
        <mxCell id="1GqySz-qCQZ0IoMKtCMp-168" value="&lt;font style=&quot;font-size: 14px&quot; face=&quot;Comic Sans MS&quot;&gt;6&lt;/font&gt;" style="rounded=0;whiteSpace=wrap;html=1;fillColor=#d5e8d4;strokeColor=#82b366;shadow=1;" parent="1" vertex="1">
          <mxGeometry x="769.06" y="340" width="40" height="40" as="geometry" />
        </mxCell>
        <mxCell id="1GqySz-qCQZ0IoMKtCMp-169" value="选6" style="text;html=1;strokeColor=none;fillColor=none;align=center;verticalAlign=middle;whiteSpace=wrap;rounded=0;shadow=1;fontFamily=Comic Sans MS;fontSize=14;" parent="1" vertex="1">
          <mxGeometry x="640" y="300" width="40" height="20" as="geometry" />
        </mxCell>
        <mxCell id="1GqySz-qCQZ0IoMKtCMp-172" value="&lt;font style=&quot;font-size: 14px&quot; face=&quot;Comic Sans MS&quot;&gt;空&lt;/font&gt;" style="rounded=0;whiteSpace=wrap;html=1;fillColor=#d5e8d4;strokeColor=#82b366;shadow=1;" parent="1" vertex="1">
          <mxGeometry x="720" y="160" width="70" height="40" as="geometry" />
        </mxCell>
        <mxCell id="1GqySz-qCQZ0IoMKtCMp-174" value="选9" style="text;html=1;strokeColor=none;fillColor=none;align=center;verticalAlign=middle;whiteSpace=wrap;rounded=0;shadow=1;fontFamily=Comic Sans MS;fontSize=14;" parent="1" vertex="1">
          <mxGeometry x="735" y="130" width="40" height="20" as="geometry" />
        </mxCell>
        <mxCell id="1GqySz-qCQZ0IoMKtCMp-179" style="edgeStyle=none;rounded=0;orthogonalLoop=1;jettySize=auto;html=1;exitX=0.5;exitY=1;exitDx=0;exitDy=0;entryX=0.5;entryY=0;entryDx=0;entryDy=0;" parent="1" source="1GqySz-qCQZ0IoMKtCMp-175" target="1GqySz-qCQZ0IoMKtCMp-178" edge="1">
          <mxGeometry relative="1" as="geometry" />
        </mxCell>
        <mxCell id="1GqySz-qCQZ0IoMKtCMp-175" value="&lt;font style=&quot;font-size: 14px&quot; face=&quot;Comic Sans MS&quot;&gt;9&lt;/font&gt;" style="rounded=0;whiteSpace=wrap;html=1;fillColor=#f5f5f5;fontColor=#333333;strokeColor=#666666;shadow=1;" parent="1" vertex="1">
          <mxGeometry x="650" y="160" width="40" height="40" as="geometry" />
        </mxCell>
        <mxCell id="1GqySz-qCQZ0IoMKtCMp-177" value="选8" style="text;html=1;strokeColor=none;fillColor=none;align=center;verticalAlign=middle;whiteSpace=wrap;rounded=0;shadow=1;fontFamily=Comic Sans MS;fontSize=14;" parent="1" vertex="1">
          <mxGeometry x="652.5" y="130" width="40" height="20" as="geometry" />
        </mxCell>
        <mxCell id="1GqySz-qCQZ0IoMKtCMp-178" value="&lt;font style=&quot;font-size: 14px&quot; face=&quot;Comic Sans MS&quot;&gt;8&lt;/font&gt;" style="rounded=0;whiteSpace=wrap;html=1;fillColor=#d5e8d4;strokeColor=#82b366;shadow=1;" parent="1" vertex="1">
          <mxGeometry x="720" y="240" width="40" height="40" as="geometry" />
        </mxCell>
        <mxCell id="1GqySz-qCQZ0IoMKtCMp-180" value="选9" style="text;html=1;strokeColor=none;fillColor=none;align=center;verticalAlign=middle;whiteSpace=wrap;rounded=0;shadow=1;fontFamily=Comic Sans MS;fontSize=14;" parent="1" vertex="1">
          <mxGeometry x="665" y="210" width="40" height="20" as="geometry" />
        </mxCell>
        <mxCell id="1GqySz-qCQZ0IoMKtCMp-181" value="&lt;font style=&quot;font-size: 14px&quot; face=&quot;Comic Sans MS&quot;&gt;9&lt;/font&gt;" style="rounded=0;whiteSpace=wrap;html=1;fillColor=#d5e8d4;strokeColor=#82b366;shadow=1;" parent="1" vertex="1">
          <mxGeometry x="759.37" y="240" width="40" height="40" as="geometry" />
        </mxCell>
        <mxCell id="1GqySz-qCQZ0IoMKtCMp-189" value="选9" style="text;html=1;strokeColor=none;fillColor=none;align=center;verticalAlign=middle;whiteSpace=wrap;rounded=0;shadow=1;fontFamily=Comic Sans MS;fontSize=14;" parent="1" vertex="1">
          <mxGeometry x="600" y="210" width="40" height="20" as="geometry" />
        </mxCell>
        <mxCell id="1GqySz-qCQZ0IoMKtCMp-190" value="&lt;font style=&quot;font-size: 14px&quot; face=&quot;Comic Sans MS&quot;&gt;3&lt;/font&gt;" style="rounded=0;whiteSpace=wrap;html=1;fillColor=#d5e8d4;strokeColor=#82b366;shadow=1;" parent="1" vertex="1">
          <mxGeometry x="584.06" y="240" width="40" height="40" as="geometry" />
        </mxCell>
        <mxCell id="1GqySz-qCQZ0IoMKtCMp-191" value="&lt;font style=&quot;font-size: 14px&quot; face=&quot;Comic Sans MS&quot;&gt;9&lt;/font&gt;" style="rounded=0;whiteSpace=wrap;html=1;fillColor=#d5e8d4;strokeColor=#82b366;shadow=1;" parent="1" vertex="1">
          <mxGeometry x="624.06" y="240" width="40" height="40" as="geometry" />
        </mxCell>
        <mxCell id="pqB38p48AfSU7p83oQ4M-2" value="&lt;font style=&quot;font-size: 14px&quot; face=&quot;Comic Sans MS&quot;&gt;1&lt;/font&gt;" style="rounded=0;whiteSpace=wrap;html=1;fillColor=#f5f5f5;fontColor=#333333;strokeColor=#666666;shadow=1;" vertex="1" parent="1">
          <mxGeometry x="200" y="580" width="40" height="40" as="geometry" />
        </mxCell>
        <mxCell id="pqB38p48AfSU7p83oQ4M-3" value="&lt;font style=&quot;font-size: 14px&quot; face=&quot;Comic Sans MS&quot;&gt;2&lt;/font&gt;" style="rounded=0;whiteSpace=wrap;html=1;fillColor=#f5f5f5;fontColor=#333333;strokeColor=#666666;shadow=1;" vertex="1" parent="1">
          <mxGeometry x="240" y="580" width="40" height="40" as="geometry" />
        </mxCell>
        <mxCell id="pqB38p48AfSU7p83oQ4M-13" value="n=10, k=3" style="text;html=1;strokeColor=none;fillColor=none;align=center;verticalAlign=middle;whiteSpace=wrap;rounded=0;shadow=0;dashed=1;fontFamily=Comic Sans MS;fontSize=14;opacity=50;" vertex="1" parent="1">
          <mxGeometry x="200" y="560" width="320" height="20" as="geometry" />
        </mxCell>
        <mxCell id="pqB38p48AfSU7p83oQ4M-14" style="rounded=0;orthogonalLoop=1;jettySize=auto;html=1;exitX=0.5;exitY=1;exitDx=0;exitDy=0;entryX=0.5;entryY=0;entryDx=0;entryDy=0;" edge="1" parent="1" source="pqB38p48AfSU7p83oQ4M-15" target="pqB38p48AfSU7p83oQ4M-19">
          <mxGeometry relative="1" as="geometry" />
        </mxCell>
        <mxCell id="pqB38p48AfSU7p83oQ4M-15" value="&lt;font style=&quot;font-size: 14px&quot; face=&quot;Comic Sans MS&quot;&gt;3&lt;/font&gt;" style="rounded=0;whiteSpace=wrap;html=1;fillColor=#f5f5f5;fontColor=#333333;strokeColor=#666666;shadow=1;" vertex="1" parent="1">
          <mxGeometry x="280" y="580" width="40" height="40" as="geometry" />
        </mxCell>
        <mxCell id="pqB38p48AfSU7p83oQ4M-16" value="&lt;font style=&quot;font-size: 14px&quot; face=&quot;Comic Sans MS&quot;&gt;4&lt;/font&gt;" style="rounded=0;whiteSpace=wrap;html=1;fillColor=#f5f5f5;fontColor=#333333;strokeColor=#666666;shadow=1;" vertex="1" parent="1">
          <mxGeometry x="350" y="670" width="40" height="40" as="geometry" />
        </mxCell>
        <mxCell id="pqB38p48AfSU7p83oQ4M-18" style="edgeStyle=none;rounded=0;orthogonalLoop=1;jettySize=auto;html=1;exitX=0.5;exitY=1;exitDx=0;exitDy=0;entryX=0.5;entryY=0;entryDx=0;entryDy=0;" edge="1" parent="1" source="pqB38p48AfSU7p83oQ4M-19">
          <mxGeometry relative="1" as="geometry">
            <mxPoint x="460" y="750" as="targetPoint" />
          </mxGeometry>
        </mxCell>
        <mxCell id="pqB38p48AfSU7p83oQ4M-19" value="&lt;font style=&quot;font-size: 14px&quot; face=&quot;Comic Sans MS&quot;&gt;...&lt;/font&gt;" style="rounded=0;whiteSpace=wrap;html=1;fillColor=#f5f5f5;fontColor=#333333;strokeColor=#666666;shadow=1;" vertex="1" parent="1">
          <mxGeometry x="390" y="670" width="40" height="40" as="geometry" />
        </mxCell>
        <mxCell id="pqB38p48AfSU7p83oQ4M-20" value="&lt;font style=&quot;font-size: 14px&quot; face=&quot;Comic Sans MS&quot;&gt;9&lt;/font&gt;" style="rounded=0;whiteSpace=wrap;html=1;fillColor=#f5f5f5;fontColor=#333333;strokeColor=#666666;shadow=1;" vertex="1" parent="1">
          <mxGeometry x="430" y="670" width="40" height="40" as="geometry" />
        </mxCell>
        <mxCell id="pqB38p48AfSU7p83oQ4M-21" value="选3" style="text;html=1;strokeColor=none;fillColor=none;align=center;verticalAlign=middle;whiteSpace=wrap;rounded=0;shadow=1;fontFamily=Comic Sans MS;fontSize=14;" vertex="1" parent="1">
          <mxGeometry x="310" y="640" width="40" height="20" as="geometry" />
        </mxCell>
        <mxCell id="pqB38p48AfSU7p83oQ4M-34" value="&lt;font style=&quot;font-size: 14px&quot; face=&quot;Comic Sans MS&quot;&gt;... ...&lt;/font&gt;" style="rounded=0;whiteSpace=wrap;html=1;fillColor=#f5f5f5;fontColor=#333333;strokeColor=#666666;shadow=1;" vertex="1" parent="1">
          <mxGeometry x="320" y="580" width="120" height="40" as="geometry" />
        </mxCell>
        <mxCell id="pqB38p48AfSU7p83oQ4M-36" value="&lt;font style=&quot;font-size: 14px&quot; face=&quot;Comic Sans MS&quot;&gt;8&lt;/font&gt;" style="rounded=0;whiteSpace=wrap;html=1;fillColor=#f5f5f5;fontColor=#333333;strokeColor=#666666;shadow=1;" vertex="1" parent="1">
          <mxGeometry x="440" y="580" width="40" height="40" as="geometry" />
        </mxCell>
        <mxCell id="pqB38p48AfSU7p83oQ4M-37" style="edgeStyle=none;rounded=0;orthogonalLoop=1;jettySize=auto;html=1;exitX=0.5;exitY=1;exitDx=0;exitDy=0;entryX=0.5;entryY=0;entryDx=0;entryDy=0;" edge="1" parent="1" source="pqB38p48AfSU7p83oQ4M-38" target="pqB38p48AfSU7p83oQ4M-53">
          <mxGeometry relative="1" as="geometry">
            <mxPoint x="640" y="620" as="sourcePoint" />
          </mxGeometry>
        </mxCell>
        <mxCell id="pqB38p48AfSU7p83oQ4M-38" value="&lt;font style=&quot;font-size: 14px&quot; face=&quot;Comic Sans MS&quot;&gt;9&lt;/font&gt;" style="rounded=0;whiteSpace=wrap;html=1;fillColor=#f5f5f5;fontColor=#333333;strokeColor=#666666;shadow=1;" vertex="1" parent="1">
          <mxGeometry x="480" y="580" width="40" height="40" as="geometry" />
        </mxCell>
        <mxCell id="pqB38p48AfSU7p83oQ4M-53" value="&lt;font style=&quot;font-size: 14px&quot; face=&quot;Comic Sans MS&quot;&gt;9&lt;/font&gt;" style="rounded=0;whiteSpace=wrap;html=1;fillColor=#d5e8d4;strokeColor=#82b366;shadow=1;" vertex="1" parent="1">
          <mxGeometry x="560" y="670" width="40" height="40" as="geometry" />
        </mxCell>
        <mxCell id="pqB38p48AfSU7p83oQ4M-54" value="选9" style="text;html=1;strokeColor=none;fillColor=none;align=center;verticalAlign=middle;whiteSpace=wrap;rounded=0;shadow=1;fontFamily=Comic Sans MS;fontSize=14;" vertex="1" parent="1">
          <mxGeometry x="560" y="640" width="40" height="20" as="geometry" />
        </mxCell>
        <mxCell id="pqB38p48AfSU7p83oQ4M-61" value="选7" style="text;html=1;strokeColor=none;fillColor=none;align=center;verticalAlign=middle;whiteSpace=wrap;rounded=0;shadow=1;fontFamily=Comic Sans MS;fontSize=14;" vertex="1" parent="1">
          <mxGeometry x="440" y="720" width="40" height="20" as="geometry" />
        </mxCell>
        <mxCell id="pqB38p48AfSU7p83oQ4M-62" value="&lt;font style=&quot;font-size: 14px&quot; face=&quot;Comic Sans MS&quot;&gt;3&lt;/font&gt;" style="rounded=0;whiteSpace=wrap;html=1;fillColor=#d5e8d4;strokeColor=#82b366;shadow=1;" vertex="1" parent="1">
          <mxGeometry x="424.05999999999995" y="750" width="40" height="40" as="geometry" />
        </mxCell>
        <mxCell id="pqB38p48AfSU7p83oQ4M-63" value="&lt;font style=&quot;font-size: 14px&quot; face=&quot;Comic Sans MS&quot;&gt;7&lt;/font&gt;" style="rounded=0;whiteSpace=wrap;html=1;fillColor=#d5e8d4;strokeColor=#82b366;shadow=1;" vertex="1" parent="1">
          <mxGeometry x="464.05999999999995" y="750" width="40" height="40" as="geometry" />
        </mxCell>
      </root>
    </mxGraphModel>
  </diagram>
</mxfile>
